# xmcd
#
# Track frame offsets:
#	150
#	35865
#	44410
#	59965
#	85726
#	108748
#	128710
#	146254
#	160052
#
# Disc length: 2538 seconds
#
# Revision: 1
# Processed by: cddbd v1.5.2PL0 Copyright (c) Steve Scherf et al.
# Submitted via: audiograbber 1.83.01
#
DISCID=8109e809
DTITLE=John Mayall - Moving on
DYEAR=1900
DGENRE=
TTITLE0=Worried mind
TTITLE1=Keep our country green
TTITLE2=Christmas 71
TTITLE3=Things go wrong
TTITLE4=Do it
TTITLE5=Moving on
TTITLE6=Red sky
TTITLE7=Reasons
TTITLE8=High pressure living
EXTD=
EXTT0=
EXTT1=
EXTT2=
EXTT3=
EXTT4=
EXTT5=
EXTT6=
EXTT7=
EXTT8=
PLAYORDER=
